# xmcd
#
# Track frame offsets: 
#        150
#        23542
#        39769
#        62256
#        89407
#        115303
#        137704
#        160049
#        184807
#        207237
#
# Disc length: 3006 seconds
#
# Revision: 0
# Processed by: cddbd v1.5.2PL0 Copyright (c) Steve Scherf et al.
# Submitted via: ExactAudioCopy v0.99pb4
#
DISCID=760bbc0a
DTITLE=Iceberg Slim - Reflections
DYEAR=1976
DGENRE=Funk
TTITLE0=The Fall (The Game) Part I
TTITLE1=The Fall (The Game) Part II
TTITLE2=The Fall (The Game) Part III
TTITLE3=The Fall (The Game) Part IV
TTITLE4=Broadway Sam
TTITLE5=Durealla (Du Fontaine) Part I
TTITLE6=Durealla (Du Fontaine) Part II
TTITLE7=Durealla (Du Fontaine) Part III
TTITLE8=Mama Debt Part I
TTITLE9=Mama Debt Part II
EXTD=
EXTT0=
EXTT1=
EXTT2=
EXTT3=
EXTT4=
EXTT5=
EXTT6=
EXTT7=
EXTT8=
EXTT9=
PLAYORDER=
